<?xml version="1.0" encoding="UTF-8" standalone="no"?>
<svg
   xmlns:dc="http://purl.org/dc/elements/1.1/"
   xmlns:cc="http://creativecommons.org/ns#"
   xmlns:rdf="http://www.w3.org/1999/02/22-rdf-syntax-ns#"
   xmlns:svg="http://www.w3.org/2000/svg"
   xmlns="http://www.w3.org/2000/svg"
   xmlns:sodipodi="http://sodipodi.sourceforge.net/DTD/sodipodi-0.dtd"
   xmlns:inkscape="http://www.inkscape.org/namespaces/inkscape"
   inkscape:version="1.0 (1.0+r73+1)"
   sodipodi:docname="Pocket-lg.svg"
   id="svg11867"
   viewBox="0 0 28070 22820"
   height="2.2820001in"
   width="2.8069999in"
   version="1.1">
  <metadata
     id="metadata11873">
    <rdf:RDF>
      <cc:Work
         rdf:about="">
        <dc:format>image/svg+xml</dc:format>
        <dc:type
           rdf:resource="http://purl.org/dc/dcmitype/StillImage" />
        <dc:title>SVG Picture created as Pocket-brd.svg date 2020/08/27 18:24:29 </dc:title>
      </cc:Work>
    </rdf:RDF>
  </metadata>
  <defs
     id="defs11871" />
  <sodipodi:namedview
     inkscape:current-layer="svg11867"
     inkscape:window-maximized="1"
     inkscape:window-y="0"
     inkscape:window-x="3840"
     inkscape:cy="95.122544"
     inkscape:cx="272.39541"
     inkscape:zoom="1.8380893"
     units="in"
     inkscape:document-units="in"
     showgrid="true"
     id="namedview11869"
     inkscape:window-height="1052"
     inkscape:window-width="1920"
     inkscape:pageshadow="2"
     inkscape:pageopacity="0"
     guidetolerance="10"
     gridtolerance="10"
     objecttolerance="10"
     borderopacity="1"
     bordercolor="#666666"
     pagecolor="#ffffff"
     inkscape:document-rotation="0">
    <inkscape:grid
       empspacing="10"
       spacingy="100"
       spacingx="100"
       units="in"
       id="grid12436"
       type="xygrid" />
  </sodipodi:namedview>
  <title
     id="title8809">SVG Picture created as Pocket-brd.svg date 2020/08/27 18:24:29 </title>
  <desc
     id="desc8811">Picture generated by PCBNEW </desc>
  <path
     id="path12487"
     style="fill:#c2c200;fill-opacity:0;stroke:#c2c200;stroke-width:19.685;stroke-linecap:round;stroke-linejoin:round;stroke-opacity:1"
     d="m 1009.8015,7820.2318 c -265.19699,0.393 -519.45499,105.635 -706.991,293.1722 C 115.2735,8300.9413 9.8604997,8555.3689 9.8424997,8820.1911 V 21820.069 c 0.02,265.617 105.4320003,520.065 292.9680003,707.6 187.53701,187.541 441.79401,292.964 706.991,292.564 H 23009.721 c 265.216,0.417 519.656,-105.023 707.193,-292.564 187.537,-187.535 292.97,-441.983 292.97,-707.6 V 8820.1911 c 0,-264.8222 -105.432,-519.2498 -292.97,-706.7871 -187.536,-187.5372 -441.976,-292.7792 -707.193,-293.1722 z m 0,350.3418 a 650.00005,650.00005 0 0 1 650.024,650.0244 650.00005,650.00005 0 0 1 -650.024,650.0245 650.00005,650.00005 0 0 1 -650.025,-650.0245 650.00005,650.00005 0 0 1 650.025,-650.0244 z m 22000.1225,0 a 650.00004,650.00004 0 0 1 649.82,650.0244 650.00004,650.00004 0 0 1 -649.82,650.0245 650.00004,650.00004 0 0 1 -650.024,-650.0245 650.00004,650.00004 0 0 1 650.024,-650.0244 z M 995.35651,21170.656 a 650.00002,650.00002 0 0 1 14.44499,0 650.00002,650.00002 0 0 1 650.024,649.821 650.00002,650.00002 0 0 1 -650.024,650.025 650.00002,650.00002 0 0 1 -650.025,-650.025 650.00002,650.00002 0 0 1 635.58001,-649.821 z m 21999.91949,0 a 650.00003,650.00003 0 0 1 14.648,0 650.00003,650.00003 0 0 1 649.82,649.821 650.00003,650.00003 0 0 1 -649.82,650.025 650.00003,650.00003 0 0 1 -650.024,-650.025 650.00003,650.00003 0 0 1 635.376,-649.821 z" />
</svg>
