<?xml version="1.0" encoding="UTF-8" standalone="no"?>
<svg
   xmlns:dc="http://purl.org/dc/elements/1.1/"
   xmlns:cc="http://creativecommons.org/ns#"
   xmlns:rdf="http://www.w3.org/1999/02/22-rdf-syntax-ns#"
   xmlns:svg="http://www.w3.org/2000/svg"
   xmlns="http://www.w3.org/2000/svg"
   xmlns:sodipodi="http://sodipodi.sourceforge.net/DTD/sodipodi-0.dtd"
   xmlns:inkscape="http://www.inkscape.org/namespaces/inkscape"
   inkscape:version="1.0 (1.0+r73+1)"
   sodipodi:docname="Pocket-sm.svg"
   id="svg11867"
   viewBox="0 0 28070 22820"
   height="2.2820001in"
   width="2.8069999in"
   version="1.1">
  <metadata
     id="metadata11873">
    <rdf:RDF>
      <cc:Work
         rdf:about="">
        <dc:format>image/svg+xml</dc:format>
        <dc:type
           rdf:resource="http://purl.org/dc/dcmitype/StillImage" />
        <dc:title>SVG Picture created as Pocket-brd.svg date 2020/08/27 18:24:29 </dc:title>
      </cc:Work>
    </rdf:RDF>
  </metadata>
  <defs
     id="defs11871" />
  <sodipodi:namedview
     inkscape:current-layer="svg11867"
     inkscape:window-maximized="1"
     inkscape:window-y="0"
     inkscape:window-x="3840"
     inkscape:cy="73.360817"
     inkscape:cx="313.77997"
     inkscape:zoom="1.8380893"
     units="in"
     inkscape:document-units="in"
     showgrid="true"
     id="namedview11869"
     inkscape:window-height="1052"
     inkscape:window-width="1920"
     inkscape:pageshadow="2"
     inkscape:pageopacity="0"
     guidetolerance="10"
     gridtolerance="10"
     objecttolerance="10"
     borderopacity="1"
     bordercolor="#666666"
     pagecolor="#ffffff"
     inkscape:document-rotation="0">
    <inkscape:grid
       empspacing="10"
       spacingy="100"
       spacingx="100"
       units="in"
       id="grid12436"
       type="xygrid" />
  </sodipodi:namedview>
  <title
     id="title8809">SVG Picture created as Pocket-brd.svg date 2020/08/27 18:24:29 </title>
  <desc
     id="desc8811">Picture generated by PCBNEW </desc>
  <path
     id="path12558"
     style="fill:#c2c200;fill-opacity:0;stroke:#c2c200;stroke-width:19.685;stroke-linecap:round;stroke-linejoin:round;stroke-opacity:1"
     d="m 10199.992,19019.98 v 2800.089 H 3000.0814 1999.9187 c 0.09,-552.332 -447.6266,-1000.14 -999.9594,-1000.163 H -8.2027876e-7 v 999.756 C 0.01999918,22085.278 105.43236,22339.523 292.96875,22527.06 c 187.5364,187.536 441.79405,292.962 706.99055,292.562 H 22999.878 c 265.216,0.416 519.657,-105.026 707.194,-292.562 187.536,-187.537 292.969,-441.782 292.969,-707.398 V 19019.98 Z M 999.9593,21170.044 a 650,650 0 0 1 650.0245,650.025 650,650 0 0 1 -650.0245,650.024 650,650 0 0 1 -650.0244,-650.024 650,650 0 0 1 650.0244,-650.025 z m 22000.1217,0 a 650.00001,650.00001 0 0 1 649.821,650.025 650.00001,650.00001 0 0 1 -649.821,650.024 650.00001,650.00001 0 0 1 -650.024,-650.024 650.00001,650.00001 0 0 1 650.024,-650.025 z" />
</svg>
