<?xml version="1.0" encoding="UTF-8" standalone="no"?>
<svg
   xmlns:dc="http://purl.org/dc/elements/1.1/"
   xmlns:cc="http://creativecommons.org/ns#"
   xmlns:rdf="http://www.w3.org/1999/02/22-rdf-syntax-ns#"
   xmlns:svg="http://www.w3.org/2000/svg"
   xmlns="http://www.w3.org/2000/svg"
   xmlns:sodipodi="http://sodipodi.sourceforge.net/DTD/sodipodi-0.dtd"
   xmlns:inkscape="http://www.inkscape.org/namespaces/inkscape"
   inkscape:version="1.0 (1.0+r73+1)"
   sodipodi:docname="Pocket-md.svg"
   id="svg11867"
   viewBox="0 0 28070 22820"
   height="2.2820001in"
   width="2.8069999in"
   version="1.1">
  <metadata
     id="metadata11873">
    <rdf:RDF>
      <cc:Work
         rdf:about="">
        <dc:format>image/svg+xml</dc:format>
        <dc:type
           rdf:resource="http://purl.org/dc/dcmitype/StillImage" />
        <dc:title>SVG Picture created as Pocket-brd.svg date 2020/08/27 18:24:29 </dc:title>
      </cc:Work>
    </rdf:RDF>
  </metadata>
  <defs
     id="defs11871" />
  <sodipodi:namedview
     inkscape:current-layer="svg11867"
     inkscape:window-maximized="1"
     inkscape:window-y="0"
     inkscape:window-x="3840"
     inkscape:cy="95.122544"
     inkscape:cx="272.39541"
     inkscape:zoom="1.8380893"
     units="in"
     inkscape:document-units="in"
     showgrid="true"
     id="namedview11869"
     inkscape:window-height="1052"
     inkscape:window-width="1920"
     inkscape:pageshadow="2"
     inkscape:pageopacity="0"
     guidetolerance="10"
     gridtolerance="10"
     objecttolerance="10"
     borderopacity="1"
     bordercolor="#666666"
     pagecolor="#ffffff"
     inkscape:document-rotation="0">
    <inkscape:grid
       empspacing="10"
       spacingy="100"
       spacingx="100"
       units="in"
       id="grid12436"
       type="xygrid" />
  </sodipodi:namedview>
  <title
     id="title8809">SVG Picture created as Pocket-brd.svg date 2020/08/27 18:24:29 </title>
  <desc
     id="desc8811">Picture generated by PCBNEW </desc>
  <path
     id="path12475"
     style="fill:#c2c200;fill-opacity:0;stroke:#c2c200;stroke-width:19.685;stroke-linecap:round;stroke-linejoin:round;stroke-opacity:1"
     d="m 1009.8019,7820.2318 c -265.19687,0.393 -519.45522,105.635 -706.99064,293.1722 C 115.27375,8300.9412 9.8612506,8555.3689 9.8425006,8820.1911 V 9820.5574 H 1009.8019 c 552.2532,-0.023 999.9386,-447.7065 999.9594,-999.9594 h 1000.1625 7199.9102 v 2799.887 l 5000.204,-0.407 v 7399.905 l -5000.204,0.625 v 2799.886 l -7199.9102,0.209 H 2009.7613 c 0.09,-552.333 -447.6271,-1000.144 -999.9594,-1000.165 H 9.8425006 v 999.553 c 0.019792,265.617 105.4322994,520.065 292.9687594,707.6 187.53647,187.542 441.79377,292.964 706.99064,292.564 H 23009.924 c 265.216,0.416 519.454,-105.022 706.991,-292.564 187.536,-187.535 292.97,-441.983 292.97,-707.6 V 8820.1911 c 0,-264.8222 -105.433,-519.2499 -292.97,-706.7871 -187.536,-187.5372 -441.774,-292.7792 -706.991,-293.1722 z m 0.2031,350.3418 A 650.00005,650.00005 0 0 1 1659.826,8820.598 650.00005,650.00005 0 0 1 1010.005,9470.6225 650.00005,650.00005 0 0 1 359.98106,8820.598 650.00005,650.00005 0 0 1 1010.005,8170.5736 Z m 21999.919,0 a 650.00004,650.00004 0 0 1 650.024,650.0244 650.00004,650.00004 0 0 1 -650.024,650.0245 650.00004,650.00004 0 0 1 -650.023,-650.0245 650.00004,650.00004 0 0 1 650.023,-650.0244 z M 995.35713,21170.656 a 650.00002,650.00002 0 0 1 14.64787,0 650.00002,650.00002 0 0 1 649.821,649.821 650.00002,650.00002 0 0 1 -649.821,650.025 650.00002,650.00002 0 0 1 -650.02394,-650.025 650.00002,650.00002 0 0 1 635.37607,-649.821 z m 22000.12387,0 a 650.00003,650.00003 0 0 1 14.443,0 650.00003,650.00003 0 0 1 650.024,649.821 650.00003,650.00003 0 0 1 -650.024,650.025 650.00003,650.00003 0 0 1 -650.023,-650.025 650.00003,650.00003 0 0 1 635.58,-649.821 z" />
</svg>
